<svg width="23" height="23" viewBox="0 0 23 23" fill="none" xmlns="http://www.w3.org/2000/svg">
<g clip-path="url(#clip0_57_41)">
<path d="M15.6241 0.5C14.4512 0.581125 13.0803 1.33187 12.2814 2.30949C11.5527 3.19636 10.9532 4.5136 11.187 5.79372C12.4684 5.83359 13.7926 5.06497 14.5598 4.07085C15.2776 3.14548 15.8207 1.83649 15.6241 0.5Z" fill="black"/>
<path d="M20.2592 7.88097C19.133 6.46885 17.5504 5.64935 16.0558 5.64935C14.0827 5.64935 13.2481 6.59397 11.8772 6.59397C10.4637 6.59397 9.38985 5.6521 7.68348 5.6521C6.00736 5.6521 4.22263 6.67647 3.09101 8.42821C1.50014 10.8949 1.77239 15.5328 4.3505 19.4831C5.27312 20.8966 6.50511 22.4861 8.1166 22.4999C9.55072 22.5136 9.95497 21.58 11.8978 21.5704C13.8407 21.5594 14.2092 22.5123 15.6406 22.4971C17.2534 22.4848 18.5528 20.7234 19.4754 19.3099C20.1368 18.2965 20.3829 17.7864 20.8958 16.6424C17.1654 15.222 16.5673 9.91733 20.2592 7.88097Z" fill="black"/>
</g>
<defs>
<clipPath id="clip0_57_41">
<rect width="22" height="22" fill="white" transform="translate(0.5 0.5)"/>
</clipPath>
</defs>
</svg>
