<svg width="13" height="16" viewBox="0 0 13 16" fill="none" xmlns="http://www.w3.org/2000/svg">
<path d="M6.3621 4.24155C7.14324 4.24155 7.77596 3.60886 7.77596 2.82769C7.77596 2.56259 7.70174 2.31164 7.57449 2.09957L6.3621 0L5.14972 2.09957C5.02247 2.31164 4.94824 2.56259 4.94824 2.82769C4.94824 3.60886 5.58096 4.24155 6.3621 4.24155Z" fill="#EC5873"/>
<path d="M10.6039 6.36235H7.06924V4.94849H5.65538V6.36235H2.12077C0.950803 6.36235 0 7.31315 0 8.48312V9.57178C0 10.3353 0.622083 10.9573 1.38556 10.9573C1.7567 10.9573 2.10308 10.8124 2.36466 10.5508L3.87747 9.04155L5.38677 10.5473C5.9099 11.0704 6.82184 11.0704 7.34494 10.5473L8.85775 9.04155L10.367 10.5473C10.6286 10.8089 10.975 10.9538 11.3461 10.9538C12.1096 10.9538 12.7317 10.3317 12.7317 9.56823V8.48312C12.7247 7.31315 11.7738 6.36235 10.6039 6.36235Z" fill="#EC5873"/>
<path d="M9.61066 11.3002L8.85072 10.5402L8.08724 11.3002C7.16471 12.2227 5.55292 12.2227 4.63038 11.3002L3.87041 10.5402L3.10694 11.3002C2.65097 11.7632 2.03949 12.0177 1.38556 12.0177C0.87303 12.0177 0.395856 11.8551 0 11.5829V14.8454C0 15.2342 0.318116 15.5523 0.706914 15.5523H12.0177C12.4065 15.5523 12.7246 15.2342 12.7246 14.8454V11.5829C12.3287 11.8551 11.8551 12.0177 11.3391 12.0177C10.6852 12.0177 10.0737 11.7632 9.61066 11.3002Z" fill="#EC5873"/>
</svg>
