<svg width="15" height="12" viewBox="0 0 15 12" fill="none" xmlns="http://www.w3.org/2000/svg">
<path fill-rule="evenodd" clip-rule="evenodd" d="M9.51297 0.797237C10.1818 1.06343 10.3864 1.99045 10.6598 2.28843C10.9333 2.5864 11.3246 2.68771 11.5412 2.68771C12.692 2.68771 13.625 3.6207 13.625 4.77087V8.6081C13.625 10.1509 12.3735 11.4024 10.8307 11.4024H4.16932C2.62582 11.4024 1.375 10.1509 1.375 8.6081V4.77087C1.375 3.6207 2.30799 2.68771 3.45882 2.68771C3.67469 2.68771 4.06603 2.5864 4.34016 2.28843C4.61364 1.99045 4.81758 1.06343 5.48637 0.797237C6.15581 0.531048 8.84419 0.531048 9.51297 0.797237Z" stroke="white" stroke-linecap="round" stroke-linejoin="round"/>
<path d="M11.1391 4.40518H11.1451" stroke="white" stroke-linecap="round" stroke-linejoin="round"/>
<path fill-rule="evenodd" clip-rule="evenodd" d="M9.60505 6.80747C9.60505 5.64471 8.66279 4.70245 7.50003 4.70245C6.33728 4.70245 5.39502 5.64471 5.39502 6.80747C5.39502 7.97022 6.33728 8.91248 7.50003 8.91248C8.66279 8.91248 9.60505 7.97022 9.60505 6.80747Z" stroke="white" stroke-linecap="round" stroke-linejoin="round"/>
</svg>
