<svg width="45" height="46" viewBox="0 0 45 46" fill="none" xmlns="http://www.w3.org/2000/svg">
<path d="M40.1114 35.5419L37.0013 36.3746H36.9977H36.9921L33.8821 37.2074C33.7624 37.2387 33.6426 37.2535 33.5247 37.2535C32.9148 37.2535 32.3566 36.8463 32.1908 36.2291C31.9936 35.4921 32.4303 34.7349 33.1691 34.5377L34.947 34.0605L33.2428 27.6986C33.0254 27.717 32.8061 27.741 32.5906 27.741C29.1342 27.741 25.9615 25.4306 25.0237 21.9373L23.091 14.7224C22.9381 14.153 23.0173 13.5598 23.3121 13.0494C23.6069 12.5391 24.0822 12.1743 24.6534 12.0232L35.52 9.11031C36.0893 8.95923 36.6808 9.03661 37.193 9.3314C37.7033 9.62619 38.0681 10.1015 38.221 10.6708L40.1538 17.884C40.6954 19.9051 40.4172 22.0147 39.3707 23.8258C38.56 25.2298 37.3551 26.3131 35.9162 26.9856L37.6204 33.3438L39.4002 32.8666C40.1353 32.675 40.8944 33.1062 41.0915 33.845C41.2887 34.5819 40.852 35.3392 40.1132 35.5363L40.1114 35.5419ZM21.0772 12.0269L10.2068 9.11399C9.63753 8.96107 9.04611 9.0403 8.53575 9.33509C8.0254 9.62987 7.6606 10.1052 7.50767 10.6727L5.57496 17.8877C5.03329 19.9088 5.31149 22.0184 6.358 23.8295C7.16867 25.2334 8.37362 26.3168 9.81256 26.9893L8.10831 33.3475L6.32852 32.8703C5.59707 32.6806 4.8343 33.1117 4.63716 33.8487C4.44002 34.5856 4.87668 35.3429 5.6155 35.54L8.72552 36.3728H8.72921H8.73474L11.8448 37.2056C11.9645 37.2369 12.0843 37.2516 12.2022 37.2516C12.812 37.2516 13.3703 36.8445 13.5361 36.2272C13.7333 35.4903 13.2966 34.733 12.5578 34.5359L10.7798 34.0587L12.4841 27.6968C12.7015 27.7152 12.9207 27.7392 13.1363 27.7392C16.5927 27.7392 19.7672 25.4287 20.7032 21.9336L22.6341 14.7205C22.787 14.1512 22.7096 13.5561 22.4148 13.0457C22.12 12.5354 21.6447 12.1706 21.0772 12.0195V12.0269Z" fill="#FF97A9" fill-opacity="0.5"/>
<path d="M39.3671 23.8295C38.3205 25.6406 36.6329 26.9377 34.6117 27.4775C33.9356 27.6581 33.2575 27.7447 32.5887 27.7447C29.1323 27.7447 25.9597 25.4343 25.0219 21.941L23.8777 17.6721L24.2241 17.72C26.4792 18.0369 28.8173 17.4989 30.3354 16.3326C32.5408 14.6376 35.8148 13.768 39.0944 13.9485L40.1501 17.8877C40.6918 19.9088 40.4136 22.0184 39.3671 23.8295ZM15.3343 16.3326C13.1492 14.5897 9.88075 13.7256 6.62332 13.9743L5.57498 17.8895C5.0333 19.9107 5.31151 22.0202 6.35801 23.8313C7.40452 25.6425 9.09219 26.9395 11.1133 27.4794C11.7895 27.6599 12.4675 27.7465 13.1363 27.7465C16.5927 27.7465 19.7672 25.4361 20.7032 21.941L21.8584 17.6297L21.2246 17.72C19.0579 18.0295 16.7972 17.4989 15.3343 16.3326Z" fill="#EC5873"/>
</svg>
