<svg width="25" height="25" viewBox="0 0 25 25" fill="none" xmlns="http://www.w3.org/2000/svg">
<path d="M16.7109 6.5V5.7C16.7109 4.5799 16.7109 4.01984 16.493 3.59202C16.3012 3.21569 15.9952 2.90973 15.6189 2.71799C15.1911 2.5 14.631 2.5 13.5109 2.5H11.9109C10.7908 2.5 10.2308 2.5 9.80296 2.71799C9.42663 2.90973 9.12067 3.21569 8.92892 3.59202C8.71094 4.01984 8.71094 4.5799 8.71094 5.7V6.5M10.7109 12V17M14.7109 12V17M3.71094 6.5H21.7109M19.7109 6.5V17.7C19.7109 19.3802 19.7109 20.2202 19.384 20.862C19.0963 21.4265 18.6374 21.8854 18.0729 22.173C17.4312 22.5 16.5911 22.5 14.9109 22.5H10.5109C8.83078 22.5 7.9907 22.5 7.34897 22.173C6.78448 21.8854 6.32554 21.4265 6.03792 20.862C5.71094 20.2202 5.71094 19.3802 5.71094 17.7V6.5" stroke="#FF0000" stroke-width="2" stroke-linecap="round" stroke-linejoin="round"/>
</svg>
