<svg width="14" height="15" viewBox="0 0 14 15" fill="none" xmlns="http://www.w3.org/2000/svg">
<path d="M13.5444 3.27307C13.621 3.1808 13.6668 3.0624 13.6668 2.93333C13.6668 2.63893 13.4279 2.4 13.1335 2.4H11.0362L11.7847 1.5984C11.7898 1.5984 11.7946 1.6 11.8002 1.6C12.2418 1.6 12.6002 1.24187 12.6002 0.8C12.6002 0.358133 12.2418 0 11.8002 0C11.3586 0 11.0002 0.358133 11.0002 0.8C11.0002 0.823467 11.0052 0.845333 11.0068 0.868267L9.57723 2.4H0.866829C0.572429 2.4 0.333496 2.63893 0.333496 2.93333C0.333496 3.0624 0.379363 3.1808 0.455896 3.27307L6.46683 10.8523V13.8667H4.60016C4.30576 13.8667 4.06683 14.1056 4.06683 14.4C4.06683 14.6944 4.30576 14.9333 4.60016 14.9333H9.40016C9.69456 14.9333 9.9335 14.6944 9.9335 14.4C9.9335 14.1056 9.69456 13.8667 9.40016 13.8667H7.5335V10.8523L13.5444 3.27307ZM2.00043 3.46667H8.58203L7.33776 4.8H8.79643L10.041 3.46667H12.0002L10.8967 4.8H8.79643H3.1039L2.00043 3.46667Z" fill="#EC5873"/>
</svg>
