<svg width="15" height="15" viewBox="0 0 15 15" fill="none" xmlns="http://www.w3.org/2000/svg">
<g clip-path="url(#clip0_319_2969)">
<path d="M12.1875 8.59216V10.6312C12.1875 11.3719 11.7516 12.0328 11.0766 12.3422C10.2562 12.7172 9.01406 13.125 7.5 13.125C5.98594 13.125 4.74375 12.7172 3.91875 12.3422C3.24844 12.0328 2.8125 11.3719 2.8125 10.6312V8.59216L6.14531 10.1156C6.57187 10.3125 7.03125 10.4109 7.5 10.4109C7.96875 10.4109 8.42812 10.3125 8.85469 10.1156L12.1875 8.59216Z" fill="#EC5873"/>
<path d="M14.0625 7.73438V10.7812C14.0625 11.0391 13.8516 11.25 13.5938 11.25C13.3359 11.25 13.125 11.0391 13.125 10.7812V8.16563L14.0625 7.73438Z" fill="#EC5873"/>
<path d="M6.53344 9.26439C6.84047 9.40455 7.17 9.47486 7.5 9.47486C7.83 9.47486 8.15906 9.40501 8.46656 9.26439L14.453 6.52783C14.7905 6.37361 15 6.04689 15 5.67517C15 5.30345 14.7905 4.97626 14.453 4.82205L8.46656 2.08595C7.85203 1.80517 7.14844 1.80517 6.53391 2.08595L0.547031 4.82158C0.209531 4.97626 0 5.30298 0 5.6747C0 6.04642 0.209531 6.37314 0.547031 6.52783L6.53344 9.26439Z" fill="#EC5873"/>
</g>
<defs>
<clipPath id="clip0_319_2969">
<rect width="15" height="15" fill="white"/>
</clipPath>
</defs>
</svg>
