<svg width="11" height="15" viewBox="0 0 11 15" fill="none" xmlns="http://www.w3.org/2000/svg">
<path d="M10.1267 0.00337457C7.75951 0.211999 6.0127 1.39357 4.9944 3.10171C4.31195 3.95722 2.94873 6.56909 2.45295 7.93637C1.554 9.63663 0.770106 11.6596 0.156645 13.4833C-0.218355 14.5985 1.46544 15.3261 1.84259 14.2058C2.30137 12.8414 2.85564 11.3663 3.48199 9.99731C4.10357 11.3885 4.73517 12.7751 5.41332 14.1397C5.93894 15.1991 7.52057 14.2701 6.99686 13.2143C6.29866 11.8095 5.65011 10.3823 5.01111 8.95037C5.01922 8.92268 5.02949 8.89571 5.03808 8.86825C5.14454 8.89857 5.26198 8.90788 5.39136 8.88329C6.36908 8.69973 7.3468 8.51665 8.32523 8.33309C8.7432 8.25455 8.90337 7.7972 8.83749 7.43104C8.63984 6.33373 8.01468 5.57036 7.23652 4.84805C7.12099 4.45515 6.73572 4.1076 6.30821 3.7622C7.17493 2.36102 8.58995 1.60052 10.4318 1.43821C11.3718 1.35585 11.0586 -0.0784999 10.1267 0.00337457ZM6.56434 6.24039C6.80614 6.49199 7.0119 6.7567 7.16729 7.0632C6.69419 7.15199 6.22084 7.24055 5.74774 7.32935C5.98644 6.94504 6.26119 6.58221 6.56434 6.24039Z" fill="#EC5873"/>
<path d="M8.58874 4.9912C9.28415 4.9912 9.84789 4.42746 9.84789 3.73205C9.84789 3.03664 9.28415 2.4729 8.58874 2.4729C7.89333 2.4729 7.32959 3.03664 7.32959 3.73205C7.32959 4.42746 7.89333 4.9912 8.58874 4.9912Z" fill="#EC5873"/>
</svg>
