<svg width="6" height="15" viewBox="0 0 6 15" fill="none" xmlns="http://www.w3.org/2000/svg">
<path d="M4.67877 3.53882H1.26201C0.621446 3.53959 0.102338 4.0587 0.101562 4.69926V8.91475C0.101562 9.14051 0.284576 9.3235 0.510305 9.3235C0.736063 9.3235 0.919048 9.14048 0.919048 8.91475V5.4624C0.919048 5.33701 1.02071 5.23535 1.1461 5.23535C1.27149 5.23535 1.37315 5.33701 1.37315 5.4624V13.7235C1.38622 14.1016 1.70336 14.3976 2.08148 14.3845C2.44127 14.3721 2.73005 14.0833 2.74249 13.7235V9.0055C2.74249 8.88011 2.84415 8.77845 2.96954 8.77845C3.09493 8.77845 3.19659 8.88011 3.19659 9.0055V13.7235C3.20966 14.1017 3.5268 14.3976 3.90492 14.3846C4.26471 14.3721 4.5535 14.0833 4.56593 13.7235V5.4624C4.56593 5.33701 4.6676 5.23535 4.79298 5.23535C4.91837 5.23535 5.02004 5.33701 5.02004 5.4624V8.91472C5.02004 9.14048 5.20305 9.32347 5.42878 9.32347C5.65454 9.32347 5.83752 9.14045 5.83752 8.91472V4.69947C5.83692 4.05945 5.31879 3.54051 4.67877 3.53882Z" fill="#EC5873"/>
<path d="M3.88238 14.5106C3.4479 14.5101 3.09578 14.158 3.09532 13.7235V9.00551C3.09532 8.93649 3.03936 8.88053 2.97033 8.88053C2.9013 8.88053 2.84534 8.93649 2.84534 9.00551V13.7236C2.83543 14.1581 2.47512 14.5024 2.04055 14.4925C1.61992 14.4829 1.28121 14.1442 1.27164 13.7236V5.46242C1.27164 5.39345 1.21574 5.33754 1.14677 5.33754C1.0778 5.33754 1.0219 5.39345 1.0219 5.46242V8.91474C1.0219 9.19692 0.793155 9.42569 0.51095 9.42569C0.228746 9.42569 0 9.19694 0 8.91474V4.69948C0.000775603 4.00247 0.565644 3.43763 1.26265 3.43683H4.67881C5.37582 3.4376 5.94066 4.00247 5.94146 4.69948V8.91477C5.94146 9.19694 5.71272 9.42572 5.43051 9.42572C5.14831 9.42572 4.91956 9.19697 4.91956 8.91477V5.46242C4.91956 5.39345 4.86366 5.33754 4.79469 5.33754C4.72572 5.33754 4.66982 5.39345 4.66982 5.46242V13.7235C4.6693 14.1582 4.31701 14.5103 3.88238 14.5106ZM2.97044 8.67626C3.15219 8.67649 3.29947 8.82376 3.2997 9.00551V13.7236C3.30823 14.0453 3.5759 14.2991 3.89761 14.2906C4.2073 14.2824 4.45644 14.0333 4.46466 13.7236V5.46242C4.46466 5.28058 4.61208 5.13316 4.79392 5.13316C4.97575 5.13316 5.12317 5.28058 5.12317 5.46242V8.91474C5.12317 9.08405 5.26043 9.2213 5.42974 9.2213C5.59905 9.2213 5.7363 9.08405 5.7363 8.91474V4.69948C5.73561 4.11531 5.26221 3.6419 4.67804 3.64121H1.26208C0.677906 3.6419 0.204501 4.11531 0.203811 4.69948V8.91477C0.203811 9.08408 0.341064 9.22133 0.510375 9.22133C0.679687 9.22133 0.81694 9.08408 0.81694 8.91477V5.46242C0.81694 5.28058 0.964362 5.13316 1.1462 5.13316C1.32803 5.13316 1.47546 5.28058 1.47546 5.46242V13.7235C1.48399 14.0452 1.75166 14.2991 2.07336 14.2906C2.38305 14.2824 2.6322 14.0333 2.64041 13.7235V9.00551C2.64061 8.82345 2.78838 8.67603 2.97044 8.67626Z" fill="#EC5873"/>
<path d="M2.97018 2.76501C3.70555 2.76501 4.30169 2.16887 4.30169 1.4335C4.30169 0.698127 3.70555 0.10199 2.97018 0.10199C2.23481 0.10199 1.63867 0.698127 1.63867 1.4335C1.63867 2.16887 2.23481 2.76501 2.97018 2.76501Z" fill="#EC5873"/>
<path d="M2.97034 2.86743C2.17853 2.86743 1.53662 2.22555 1.53662 1.43372C1.53662 0.641912 2.1785 0 2.97034 0C3.76208 0 4.40394 0.641768 4.40405 1.43349C4.40328 2.22506 3.76188 2.86654 2.97034 2.86743ZM2.97034 0.204213C2.2914 0.204213 1.74101 0.754604 1.74101 1.43354C1.74101 2.11248 2.2914 2.66288 2.97034 2.66288C3.64928 2.66288 4.19967 2.11248 4.19967 1.43354C4.19889 0.75492 3.64896 0.204989 2.97034 0.204213Z" fill="#EC5873"/>
</svg>
