<svg width="22" height="23" viewBox="0 0 22 23" fill="none" xmlns="http://www.w3.org/2000/svg">
<path d="M21.7852 9.34512H20.9V9.3H11V13.7H17.2176C16.3088 16.2609 13.8725 18.1 11 18.1C7.3541 18.1 4.4 15.1459 4.4 11.5C4.4 7.8541 7.3541 4.9 11 4.9C12.6822 4.9 14.2141 5.53379 15.3785 6.57148L18.4895 3.46055C16.5258 1.63008 13.8982 0.5 11 0.5C4.92422 0.5 0 5.42422 0 11.5C0 17.5758 4.92422 22.5 11 22.5C17.0758 22.5 22 17.5758 22 11.5C22 10.7631 21.9248 10.0434 21.7852 9.34512Z" fill="#FFC107"/>
<path d="M1.26758 6.38027L4.8834 9.03145C5.86094 6.61016 8.22852 4.9 11 4.9C12.6822 4.9 14.2141 5.53379 15.3785 6.57149L18.4895 3.46055C16.5258 1.63008 13.8982 0.5 11 0.5C6.77402 0.5 3.11094 2.88477 1.26758 6.38027Z" fill="#FF3D00"/>
<path d="M10.9999 22.5C13.8401 22.5 16.4225 21.4129 18.3755 19.6447L14.9702 16.7637C13.8659 17.5994 12.493 18.1 10.9999 18.1C8.13817 18.1 5.71043 16.276 4.7952 13.7301L1.20731 16.493C3.02703 20.0551 6.72449 22.5 10.9999 22.5Z" fill="#4CAF50"/>
<path d="M21.7852 9.34514H20.9V9.30002H11V13.7H17.2176C16.7814 14.9311 15.9887 15.9903 14.9682 16.7637C14.9703 16.7637 14.9703 16.7637 14.9703 16.7637L18.3756 19.6447C18.135 19.8617 22 17 22 11.5C22 10.7631 21.9248 10.0434 21.7852 9.34514Z" fill="#1976D2"/>
</svg>
