<svg width="18" height="15" viewBox="0 0 18 15" fill="none" xmlns="http://www.w3.org/2000/svg">
<path d="M15.548 14.9889L13.8506 14.7839C13.7196 14.7686 13.5976 14.7096 13.5044 14.6163C13.4111 14.5231 13.3521 14.4011 13.3368 14.2701L13.1261 12.5467C13.0984 12.2944 13.1453 12.0396 13.2609 11.8136C13.3765 11.5876 13.5557 11.4004 13.7765 11.2752C13.9972 11.1499 14.2498 11.092 14.5031 11.1087C14.7563 11.1253 14.9992 11.2158 15.2016 11.3689C15.3623 11.4918 15.4914 11.6513 15.5782 11.834C15.6651 12.0167 15.7072 12.2175 15.701 12.4197C15.9048 12.4124 16.1074 12.4545 16.2913 12.5425C16.4753 12.6305 16.6353 12.7617 16.7576 12.9249C16.9104 13.1294 16.9995 13.3745 17.0137 13.6294C17.0279 13.8844 16.9666 14.1379 16.8376 14.3582C16.7085 14.5785 16.5173 14.7558 16.2879 14.868C16.0585 14.9802 15.8012 15.0222 15.548 14.9889ZM2.01494 3.45633C2.0033 3.46831 3.5957 3.27314 3.65171 3.2658C3.7737 3.25111 3.88724 3.1959 3.97413 3.10901C4.06102 3.02213 4.11623 2.9086 4.13093 2.7866L4.31279 1.29126C4.33754 1.09293 4.31038 0.891568 4.23397 0.706876C4.15756 0.522184 4.03453 0.360486 3.87689 0.237601C3.70568 0.107653 3.50193 0.0274753 3.28808 0.00589924C3.07422 -0.0156768 2.85856 0.0221854 2.66484 0.115316C2.47113 0.208447 2.30687 0.353233 2.19016 0.53373C2.07346 0.714226 2.00883 0.92343 2.00339 1.1383C0.48537 1.19034 0.493837 3.41525 2.01494 3.45633ZM13.3916 7.96254C13.2925 7.27428 12.9842 6.63313 12.5085 6.12593C12.0328 5.61873 11.4127 5.27 10.7322 5.12697C10.0517 4.98394 9.34368 5.05352 8.70405 5.3263C8.06442 5.59907 7.52409 6.06185 7.15624 6.65196H7.12449C5.45655 3.9505 1.26996 4.88638 0.880448 8.03187C0.807861 8.61395 0.888148 9.20489 1.1134 9.7465C1.33865 10.2881 1.7011 10.7617 2.16505 11.1206L6.38837 14.4317C6.60289 14.6001 6.86769 14.6915 7.14036 14.6915C7.41304 14.6915 7.67783 14.6001 7.89236 14.4317L12.0666 11.1611C12.5529 10.7948 12.9322 10.3049 13.1652 9.74247C13.3982 9.18001 13.4764 8.56542 13.3916 7.96254ZM7.14181 5.7282C9.84701 2.85957 14.6725 5.28793 13.9256 9.19234L15.6664 7.82975C18.0699 6.03243 17.0823 2.13939 14.0815 1.75314C12.6967 1.55899 11.4871 2.23244 10.7214 3.32357C10.3819 2.77093 9.88966 2.32833 9.30419 2.04917C8.71871 1.77 8.06497 1.66619 7.42182 1.75026C6.71114 1.84299 6.04775 2.15733 5.5259 2.6486C5.00405 3.13987 4.65029 3.7831 4.51486 4.4869C5.51693 4.5499 6.45688 4.99405 7.14181 5.7282Z" fill="url(#paint0_linear_319_2963)"/>
<defs>
<linearGradient id="paint0_linear_319_2963" x1="0.85591" y1="7.49951" x2="17.0257" y2="7.49951" gradientUnits="userSpaceOnUse">
<stop stop-color="#FFA68D"/>
<stop offset="1" stop-color="#FD3A84"/>
</linearGradient>
</defs>
</svg>
