<svg width="13" height="13" viewBox="0 0 13 13" fill="none" xmlns="http://www.w3.org/2000/svg">
<path d="M12.9208 2.24609L10.7539 0.0792264C10.6483 -0.0264088 10.4765 -0.0264088 10.3709 0.0792264L9.74956 0.70057L10.2122 1.16321C10.3178 1.26884 10.3178 1.44057 10.2122 1.54621C10.1591 1.59875 10.0898 1.62531 10.0204 1.62531C9.95108 1.62531 9.88176 1.59877 9.82866 1.54621L9.36658 1.08357L8.66614 1.78402L9.67048 2.78836C9.77612 2.894 9.77612 3.06573 9.67048 3.17137C9.61739 3.22391 9.54807 3.25047 9.47872 3.25047C9.40937 3.25047 9.34004 3.22393 9.28695 3.17137L8.28313 2.16702L7.58269 2.86746L8.04533 3.3301C8.15096 3.43573 8.15096 3.60747 8.04533 3.7131C7.99223 3.76564 7.92291 3.7922 7.85356 3.7922C7.78421 3.7922 7.71489 3.76567 7.66179 3.7131L7.19971 3.25047L6.49927 3.95091L7.50362 4.95526C7.60925 5.06089 7.60925 5.23263 7.50362 5.33826C7.45052 5.3908 7.3812 5.41736 7.31185 5.41736C7.2425 5.41736 7.17318 5.39082 7.12008 5.33826L6.11627 4.33391L5.41582 5.03436L5.87846 5.49699C5.9841 5.60263 5.9841 5.77436 5.87846 5.88C5.82536 5.93253 5.75604 5.9591 5.68669 5.9591C5.61734 5.9591 5.54802 5.93256 5.49492 5.88L5.03285 5.41736L4.3324 6.1178L5.33675 7.12215C5.44239 7.22778 5.44239 7.39952 5.33675 7.50515C5.28365 7.55769 5.21433 7.58425 5.14498 7.58425C5.07563 7.58425 5.00631 7.55772 4.95321 7.50515L3.9494 6.50081L3.24896 7.20125L3.71159 7.66388C3.81723 7.76952 3.81723 7.94125 3.71159 8.04689C3.6585 8.09943 3.58917 8.12599 3.51982 8.12599C3.45048 8.12599 3.38115 8.09945 3.32806 8.04689L2.86598 7.58425L2.16554 8.28469L3.16988 9.28904C3.27552 9.39468 3.27552 9.56641 3.16988 9.67205C3.11679 9.72458 3.04746 9.75115 2.97811 9.75115C2.90877 9.75115 2.83944 9.72461 2.78635 9.67205L1.78253 8.6677L1.08209 9.36814L1.54473 9.83078C1.65036 9.93641 1.65036 10.1081 1.54473 10.2138C1.49163 10.2663 1.42231 10.2929 1.35296 10.2929C1.28361 10.2929 1.21429 10.2663 1.16119 10.2138L0.699111 9.75115L0.0782498 10.3719C-0.0273854 10.4775 -0.0273854 10.6492 0.0782498 10.7549L2.24512 12.9218C2.29766 12.9748 2.367 13.0014 2.43635 13.0014C2.5057 13.0014 2.57502 12.9748 2.62812 12.9223L12.9208 2.62963C13.0264 2.52346 13.0264 2.35229 12.9208 2.24609Z" fill="#EC5873"/>
</svg>
