<svg width="20" height="17" viewBox="0 0 20 17" fill="none" xmlns="http://www.w3.org/2000/svg">
<path opacity="0.4" d="M16.4295 3.0498C17.844 4.34934 19.0437 6.10224 19.9412 8.20898C20.0191 8.39585 20.0191 8.612 19.9412 8.78906C17.8534 13.6919 14.1364 16.626 9.99981 16.626H9.99004C8.10712 16.626 6.30196 16.0062 4.71172 14.874L7.8045 11.7529C8.42889 12.1753 9.19005 12.4326 9.99981 12.4326C12.1462 12.4326 13.8924 10.6698 13.8924 8.50391C13.8924 7.68691 13.6389 6.91907 13.2195 6.28906L16.4295 3.0498ZM9.99981 0.381836C11.3949 0.381836 12.751 0.716602 13.9998 1.3457L10.741 4.63477C10.5069 4.59541 10.2534 4.56641 9.99981 4.56641C7.84375 4.56641 6.09753 6.3282 6.09747 8.50391C6.09747 8.75978 6.12682 9.01575 6.16583 9.25195L2.55547 12.8945C1.58003 11.7526 0.731486 10.3729 0.0584033 8.78906C-0.0194458 8.612 -0.0194897 8.39585 0.0584033 8.20898C2.14621 3.30614 5.86322 0.38184 9.99004 0.381836H9.99981Z" fill="black"/>
<path d="M17.1712 0.213984C17.4639 -0.0712302 17.9225 -0.0714257 18.2053 0.213984C18.4979 0.499453 18.4979 0.972426 18.2053 1.25793L16.429 3.04992L13.22 6.2882L2.8196 16.7843C2.67338 16.9309 2.48821 17 2.303 17.0001C2.11764 17.0001 1.92201 16.931 1.78542 16.7843C1.54174 16.5383 1.50272 16.1439 1.69753 15.8585L1.72683 15.8185L12.1956 5.25598L15.2884 2.13488L16.1565 1.25793C16.176 1.23827 16.1956 1.21801 16.2053 1.19836C16.2247 1.1788 16.2445 1.15933 16.2542 1.13977L17.1712 0.213984ZM12.1565 7.36242C12.332 7.69704 12.4299 8.09071 12.43 8.50402C12.43 9.85278 11.3368 10.9552 10.0003 10.9552C9.59051 10.9552 9.20014 10.857 8.86843 10.6798L12.1565 7.36242Z" fill="black"/>
</svg>
