<svg width="16" height="16" viewBox="0 0 16 16" fill="none" xmlns="http://www.w3.org/2000/svg">
<path d="M14.2814 1.77504C13.7627 1.43754 13.0783 1.54379 12.6814 2.01566C11.922 2.91879 10.4908 4.22504 8.47517 4.40629H7.52517C5.50954 4.22504 4.07829 2.91879 3.31892 2.01566C2.92204 1.54066 2.23767 1.43754 1.72204 1.77191C1.10017 2.17816 0.981418 3.04066 1.47204 3.59691C2.23454 4.46566 3.51267 5.62816 5.29704 6.26566V6.27504V14.8813C5.29704 15.4969 5.79704 15.9969 6.41267 15.9969C7.02829 15.9969 7.52829 15.4969 7.52829 14.8813V11.3938H8.48454V14.8844C8.48454 15.5 8.98454 16 9.60017 16C10.2158 16 10.7158 15.5 10.7158 14.8844V6.27816C10.7158 6.27504 10.7158 6.27191 10.7158 6.26879C12.5002 5.63129 13.7783 4.46879 14.5408 3.60004C15.022 3.04066 14.9033 2.17816 14.2814 1.77504Z" fill="#EC5873"/>
<path d="M8 3.9375C9.08731 3.9375 9.96875 3.05606 9.96875 1.96875C9.96875 0.881439 9.08731 0 8 0C6.91269 0 6.03125 0.881439 6.03125 1.96875C6.03125 3.05606 6.91269 3.9375 8 3.9375Z" fill="#EC5873"/>
</svg>
