<svg width="14" height="17" viewBox="0 0 14 17" fill="none" xmlns="http://www.w3.org/2000/svg">
<path fill-rule="evenodd" clip-rule="evenodd" d="M7.00005 9.79708C5.67347 9.79708 4.59393 8.73252 4.59393 7.42329C4.59393 6.11407 5.67347 5.04864 7.00005 5.04864C8.32662 5.04864 9.40529 6.11407 9.40529 7.42329C9.40529 8.73252 8.32662 9.79708 7.00005 9.79708ZM11.9354 2.12478C10.5894 0.754823 8.83651 0 7.00005 0C5.16183 0 3.40889 0.754823 2.0621 2.12565C0.695081 3.5173 -0.0556773 5.38701 0.00322298 7.25584C0.169374 12.5518 6.49017 16.6755 6.76005 16.8482L6.99653 17L7.23565 16.8508C7.50466 16.6825 13.8298 12.6585 13.9969 7.25498C14.0549 5.38701 13.3033 3.51643 11.9354 2.12478Z" fill="#EC5873"/>
</svg>
