<svg width="24" height="25" viewBox="0 0 24 25" fill="none" xmlns="http://www.w3.org/2000/svg">
<path opacity="0.4" d="M11.9999 4.5C14.0681 4.5 16.029 5.21753 17.7363 6.5459C19.4436 7.8637 20.8974 9.79449 21.9413 12.209C22.0194 12.3923 22.0194 12.6067 21.9413 12.7812C19.8535 17.6103 16.1365 20.5 11.9999 20.5H11.9902C7.86337 20.5 4.14634 17.6103 2.05854 12.7812C1.98049 12.6067 1.98049 12.3923 2.05854 12.209C4.14635 7.37899 7.86338 4.5 11.9902 4.5H11.9999ZM11.9999 8.62109C9.84385 8.62109 8.0976 10.357 8.0976 12.5C8.0976 14.6333 9.84385 16.3691 11.9999 16.3691C14.1463 16.3691 15.8925 14.6333 15.8925 12.5C15.8925 10.357 14.1463 8.62109 11.9999 8.62109Z" fill="black"/>
<path d="M14.4309 12.4969C14.4309 13.8254 13.3382 14.9115 12.0016 14.9115C10.6553 14.9115 9.56262 13.8254 9.56262 12.4969C9.56262 12.3321 9.58213 12.1779 9.6114 12.0227H9.66018C10.7431 12.0227 11.6212 11.1694 11.6602 10.1018C11.7675 10.0833 11.8846 10.0727 12.0016 10.0727C13.3382 10.0727 14.4309 11.1587 14.4309 12.4969Z" fill="black"/>
</svg>
