<svg width="24" height="25" viewBox="0 0 24 25" fill="none" xmlns="http://www.w3.org/2000/svg">
<path opacity="0.4" d="M18.4295 7.0498C19.844 8.34934 21.0437 10.1022 21.9412 12.209C22.0191 12.3959 22.0191 12.612 21.9412 12.7891C19.8534 17.6919 16.1364 20.626 11.9998 20.626H11.99C10.1071 20.626 8.30196 20.0062 6.71172 18.874L9.8045 15.7529C10.4289 16.1753 11.1901 16.4326 11.9998 16.4326C14.1462 16.4326 15.8924 14.6698 15.8924 12.5039C15.8924 11.6869 15.6389 10.9191 15.2195 10.2891L18.4295 7.0498ZM11.9998 4.38184C13.3949 4.38184 14.751 4.7166 15.9998 5.3457L12.741 8.63477C12.5069 8.59541 12.2534 8.56641 11.9998 8.56641C9.84375 8.56641 8.09753 10.3282 8.09747 12.5039C8.09747 12.7598 8.12682 13.0157 8.16583 13.252L4.55547 16.8945C3.58003 15.7526 2.73149 14.3729 2.0584 12.7891C1.98055 12.612 1.98051 12.3959 2.0584 12.209C4.14621 7.30614 7.86322 4.38184 11.99 4.38184H11.9998Z" fill="black"/>
<path d="M19.1712 4.21398C19.4639 3.92877 19.9225 3.92857 20.2053 4.21398C20.4979 4.49945 20.4979 4.97243 20.2053 5.25793L18.429 7.04992L15.22 10.2882L4.8196 20.7843C4.67338 20.9309 4.48821 21 4.303 21.0001C4.11764 21.0001 3.92201 20.931 3.78542 20.7843C3.54174 20.5383 3.50272 20.1439 3.69753 19.8585L3.72683 19.8185L14.1956 9.25598L17.2884 6.13488L18.1565 5.25793C18.176 5.23827 18.1956 5.21801 18.2053 5.19836C18.2247 5.1788 18.2445 5.15933 18.2542 5.13977L19.1712 4.21398ZM14.1565 11.3624C14.332 11.697 14.4299 12.0907 14.43 12.504C14.43 13.8528 13.3368 14.9552 12.0003 14.9552C11.5905 14.9552 11.2001 14.857 10.8684 14.6798L14.1565 11.3624Z" fill="black"/>
</svg>
