<svg width="12" height="14" viewBox="0 0 12 14" fill="none" xmlns="http://www.w3.org/2000/svg">
<path d="M5.76263 0C3.85619 0 2.30518 1.55101 2.30518 3.45745C2.30518 5.36389 3.85619 6.91491 5.76263 6.91491C7.66907 6.91491 9.22009 5.36389 9.22009 3.45745C9.22009 1.55101 7.66907 0 5.76263 0Z" fill="#EC5873"/>
<path d="M10.0642 9.17365C9.11759 8.21253 7.86274 7.68323 6.53075 7.68323H4.9941C3.66214 7.68323 2.40726 8.21253 1.46068 9.17365C0.518746 10.1301 0 11.3925 0 12.7285C0 12.9407 0.172002 13.1127 0.384162 13.1127H11.1407C11.3528 13.1127 11.5248 12.9407 11.5248 12.7285C11.5248 11.3925 11.0061 10.1301 10.0642 9.17365Z" fill="#EC5873"/>
</svg>
