<svg width="15" height="15" viewBox="0 0 15 15" fill="none" xmlns="http://www.w3.org/2000/svg">
<g clip-path="url(#clip0_319_2868)">
<path d="M10.031 7.94978C9.356 6.8968 8.20644 6.26807 6.95583 6.26807C5.70522 6.26807 4.55566 6.8968 3.8808 7.94978L2.25437 10.487C1.98451 10.908 1.86 11.3943 1.89422 11.8932C1.92844 12.3921 2.1183 12.8568 2.44319 13.2372C2.76832 13.6172 3.19793 13.877 3.68556 13.9885C4.1732 14.0999 4.67307 14.0523 5.13107 13.851L5.16174 13.8374C6.31416 13.341 7.63103 13.3455 8.78047 13.851C9.07699 13.9814 9.39113 14.0473 9.70813 14.0473C9.88048 14.0473 10.0539 14.0277 10.2256 13.9886C10.7133 13.8772 11.1429 13.6175 11.4681 13.2373C11.7931 12.8572 11.9831 12.3925 12.0174 11.8934C12.0518 11.3943 11.9273 10.9081 11.6574 10.4869L10.031 7.94978Z" fill="#EC5873"/>
<path d="M2.69223 7.94646C3.17609 7.76061 3.54367 7.37071 3.72724 6.84852C3.90199 6.35161 3.88768 5.79063 3.68684 5.26877C3.48588 4.74727 3.12036 4.32155 2.65756 4.06989C2.17141 3.80565 1.63732 3.76262 1.15426 3.94881C0.182431 4.32246 -0.263545 5.52341 0.160229 6.6265C0.498746 7.50449 1.28827 8.05873 2.0865 8.05873C2.29032 8.05873 2.49471 8.02257 2.69223 7.94646Z" fill="#EC5873"/>
<path d="M5.84812 5.95859C7.06303 5.95859 8.05145 4.8325 8.05145 3.44833C8.05145 2.06383 7.06303 0.9375 5.84812 0.9375C4.63333 0.9375 3.64502 2.06383 3.64502 3.44833C3.64502 4.8325 4.63333 5.95859 5.84812 5.95859Z" fill="#EC5873"/>
<path d="M9.65337 6.57537H9.65348C9.84036 6.6374 10.031 6.66704 10.2209 6.66704C11.1069 6.66704 11.9703 6.02217 12.2998 5.03111C12.4896 4.46062 12.4771 3.8574 12.2647 3.33269C12.0424 2.78337 11.6306 2.38466 11.1048 2.20991C10.579 2.03516 10.0103 2.10806 9.50345 2.41499C9.01925 2.70819 8.64823 3.18392 8.45872 3.75441C8.05875 4.95787 8.59467 6.22335 9.65337 6.57537Z" fill="#EC5873"/>
<path d="M14.2932 6.28236L14.2928 6.28201C13.455 5.66312 12.202 5.93137 11.4994 6.88031C10.7976 7.82971 10.9073 9.10607 11.7439 9.72543C12.049 9.95145 12.4095 10.0595 12.7784 10.0595C13.4215 10.0595 14.0905 9.73126 14.5377 9.1277C15.2395 8.1783 15.1298 6.90194 14.2932 6.28236Z" fill="#EC5873"/>
</g>
<defs>
<clipPath id="clip0_319_2868">
<rect width="15" height="15" fill="white"/>
</clipPath>
</defs>
</svg>
