<svg width="15" height="18" viewBox="0 0 15 18" fill="none" xmlns="http://www.w3.org/2000/svg">
<path d="M12.1598 4.09014L13.237 3.01281C13.4333 2.81651 13.4333 2.49804 13.237 2.30174C13.0406 2.10531 12.7222 2.10531 12.5258 2.30174L11.4486 3.37895C11.2522 3.57537 11.2522 3.89372 11.4486 4.09014C11.6449 4.28644 11.9634 4.28657 12.1598 4.09014Z" fill="#EC5873"/>
<path d="M14.4975 7.00183H13.4203C13.1426 7.00183 12.9175 7.22694 12.9175 7.50468C12.9175 7.7823 13.1426 8.00754 13.4203 8.00754H14.4975C14.7753 8.00754 15.0004 7.7823 15.0004 7.50468C15.0004 7.22694 14.7753 7.00183 14.4975 7.00183Z" fill="#EC5873"/>
<path d="M7.99789 0.502853C7.99789 0.225105 7.77279 0 7.49504 0C7.21729 0 6.99219 0.225105 6.99219 0.502853V1.58006C6.99219 1.85781 7.21729 2.08291 7.49504 2.08291C7.77279 2.08291 7.99789 1.85781 7.99789 1.58006V0.502853Z" fill="#EC5873"/>
<path d="M2.83039 4.09014C3.02668 4.28644 3.34516 4.28657 3.54158 4.09014C3.73788 3.89372 3.73788 3.57537 3.54158 3.37895L2.46438 2.30174C2.26795 2.10531 1.94961 2.10531 1.75318 2.30174C1.55688 2.49817 1.55688 2.81651 1.75318 3.01281L2.83039 4.09014Z" fill="#EC5873"/>
<path d="M2.07315 7.50468C2.07315 7.22694 1.84804 7.00183 1.57029 7.00183H0.493088C0.21534 7.00183 -0.00976562 7.22694 -0.00976562 7.50468C-0.00976562 7.7823 0.21534 8.00754 0.493088 8.00754H1.57029C1.84804 8.00754 2.07315 7.78243 2.07315 7.50468Z" fill="#EC5873"/>
<path d="M4.83817 10.1708C4.83843 9.7455 4.93927 9.3165 5.13111 8.92718C5.13111 8.92718 6.45529 6.28196 6.70855 5.77649C6.89437 5.40276 6.99259 4.98568 6.99259 4.57004C6.99259 4.16016 6.83767 3.77477 6.55586 3.48144L6.13512 3.06069C5.97339 2.89884 5.70062 2.9431 5.59822 3.14777L2.7368 8.87061C2.70183 8.94041 2.68376 9.01741 2.68376 9.09546V12.9268L1.45923 14.1512C1.26294 14.3477 1.26294 14.666 1.45923 14.8624L3.61365 17.0168C3.81007 17.2133 4.12855 17.2133 4.32484 17.0168L6.35132 14.9902C6.76486 14.5777 6.99259 14.0279 6.99259 13.442V9.20284C6.99259 9.12374 6.92855 9.05971 6.84959 9.05971C6.29409 9.05971 5.84388 9.51005 5.84388 10.0654V11.8144C5.84388 12.1001 5.60542 12.3302 5.31667 12.3166C5.04625 12.3039 4.83817 12.0709 4.83817 11.8001V10.1727C4.83817 10.1721 4.83817 10.1715 4.83817 10.1708Z" fill="#EC5873"/>
<path d="M12.307 12.9268V9.09546C12.307 9.01741 12.2888 8.94041 12.2538 8.87061L9.39242 3.14777C9.29001 2.9431 9.01737 2.89884 8.85552 3.06069L8.43477 3.48144C8.15309 3.77477 7.99805 4.16016 7.99805 4.57004C7.99805 4.98568 8.09626 5.40276 8.28208 5.77649C8.53534 6.28196 9.85965 8.92718 9.85965 8.92718C10.0515 9.3165 10.1522 9.7455 10.1526 10.1708V10.1727V11.8001C10.1526 12.0709 9.94451 12.3039 9.67396 12.3167C9.38522 12.3303 9.14688 12.1001 9.14688 11.8144V10.0654C9.14688 9.51005 8.69654 9.05971 8.14118 9.05971C8.06221 9.05971 7.99805 9.12374 7.99805 9.20284V13.442C7.99805 14.0279 8.2259 14.5777 8.63945 14.9902L10.6659 17.0168C10.8622 17.2133 11.1807 17.2133 11.377 17.017L13.5314 14.8624C13.7278 14.666 13.7278 14.3477 13.5314 14.1514L12.307 12.9268Z" fill="#EC5873"/>
</svg>
