<svg width="17" height="17" viewBox="0 0 17 17" fill="none" xmlns="http://www.w3.org/2000/svg">
<g clip-path="url(#clip0_319_2909)">
<path fill-rule="evenodd" clip-rule="evenodd" d="M14.87 9.99139C14.8206 9.94205 14.762 9.90291 14.6975 9.87622C14.633 9.84953 14.5639 9.8358 14.4941 9.83582C14.4243 9.83584 14.3552 9.84962 14.2907 9.87635C14.2263 9.90308 14.1677 9.94225 14.1183 9.99162C14.069 10.041 14.0299 10.0996 14.0032 10.1641C13.9765 10.2286 13.9627 10.2977 13.9628 10.3675C13.9628 10.4373 13.9766 10.5064 14.0033 10.5709C14.03 10.6354 14.0692 10.694 14.1186 10.7433L15.1859 11.8107H12.725C12.6149 10.8625 12.2167 9.97078 11.5843 9.25574C10.9518 8.54071 10.1154 8.03668 9.1877 7.81157C8.96249 6.88416 8.45854 6.04801 7.7437 5.4157C7.02886 4.78339 6.13745 4.38527 5.18948 4.27494V3.18382H6.78038C6.92127 3.18382 7.0564 3.12785 7.15603 3.02822C7.25566 2.92859 7.31163 2.79346 7.31163 2.65257C7.31163 2.51167 7.25566 2.37654 7.15603 2.27692C7.0564 2.17729 6.92127 2.12132 6.78038 2.12132H5.18948V0.531982C5.18948 0.391086 5.13351 0.255961 5.03388 0.156332C4.93425 0.0567033 4.79913 0.000732422 4.65823 0.000732422C4.51734 0.000732422 4.38221 0.0567033 4.28258 0.156332C4.18295 0.255961 4.12698 0.391086 4.12698 0.531982V2.12132H2.53595C2.39506 2.12132 2.25993 2.17729 2.1603 2.27692C2.06068 2.37654 2.0047 2.51167 2.0047 2.65257C2.0047 2.79346 2.06068 2.92859 2.1603 3.02822C2.25993 3.12785 2.39506 3.18382 2.53595 3.18382H4.12715V4.27494C1.80801 4.53824 0 6.51409 0 8.90266C0 11.0944 1.52372 12.9398 3.56837 13.4308C4.06044 15.4754 5.90418 16.9996 8.09754 16.9996C10.4861 16.9996 12.4608 15.1908 12.725 12.8734H15.1859L14.1186 13.9407C14.0693 13.9901 14.0303 14.0486 14.0037 14.113C13.9772 14.1775 13.9635 14.2465 13.9636 14.3162C13.9637 14.3859 13.9775 14.4549 14.0043 14.5192C14.031 14.5836 14.0702 14.642 14.1195 14.6912C14.1689 14.7405 14.2274 14.7795 14.2918 14.8061C14.3562 14.8327 14.4253 14.8463 14.495 14.8462C14.5647 14.8461 14.6336 14.8323 14.698 14.8055C14.7623 14.7788 14.8208 14.7396 14.87 14.6903L16.8442 12.7168C16.9439 12.6171 16.9999 12.4818 16.9999 12.3408C16.9999 12.1998 16.9439 12.0646 16.8442 11.9649L14.87 9.99139ZM1.0625 8.90266C1.06248 8.05626 1.36103 7.23699 1.90559 6.58904C2.45014 5.94109 3.20581 5.50599 4.03958 5.36034C4.87334 5.21468 5.73177 5.3678 6.46376 5.79274C7.19574 6.21768 7.75438 6.8872 8.04133 7.68347C5.5173 7.71432 3.46973 9.76136 3.43984 12.2851C2.74429 12.0335 2.14302 11.574 1.7177 10.9688C1.29238 10.3637 1.06363 9.64231 1.0625 8.90266ZM8.09754 15.938C7.35753 15.9368 6.63581 15.7079 6.03047 15.2822C5.42514 14.8566 4.96554 14.2549 4.71415 13.5589C7.23865 13.5304 9.28588 11.481 9.31577 8.95721C10.1121 9.24421 10.7818 9.80289 11.2068 10.5349C11.6319 11.267 11.7852 12.1255 11.6396 12.9594C11.4941 13.7933 11.0591 14.5492 10.4112 15.094C9.76334 15.6388 8.94406 15.9377 8.09754 15.938Z" fill="#EC5873"/>
</g>
<defs>
<clipPath id="clip0_319_2909">
<rect width="17" height="17" fill="white"/>
</clipPath>
</defs>
</svg>
