<svg width="14" height="12" viewBox="0 0 14 12" fill="none" xmlns="http://www.w3.org/2000/svg">
<path d="M0.000488281 9.79977H10.5002V11.8997H0.000488281V9.79977ZM12.9502 9.79977H14.0002V11.8997H12.9502V9.79977ZM11.2002 9.79977H12.2502V11.8997H11.2002V9.79977ZM11.7952 4.01091C12.2292 3.58392 12.4952 2.99593 12.4952 2.34495C12.4952 1.04998 11.4452 0 10.1503 0V1.04998C10.8642 1.04998 11.4452 1.63096 11.4452 2.34495C11.4452 3.05893 10.8642 3.63992 10.1503 3.63992V4.68989C11.7182 4.68989 12.9502 5.97086 12.9502 7.53883V9.09979H14.0002V7.53183C14.0002 5.97786 13.1042 4.63389 11.7952 4.01091ZM9.82126 5.73987H8.75029C8.0363 5.73987 7.45531 5.05388 7.45531 4.3399C7.45531 3.62592 8.0363 3.11493 8.75029 3.11493V2.06495C7.45531 2.06495 6.40534 3.11493 6.40534 4.4099C6.40534 5.70487 7.45531 6.75484 8.75029 6.75484H9.82126C10.5562 6.75484 11.2002 7.27283 11.2002 8.18981V9.09979H12.2502V7.95181C12.2502 6.68484 11.1302 5.73987 9.82126 5.73987Z" fill="#EC5873"/>
</svg>
