<svg width="117" height="117" viewBox="0 0 117 117" fill="none" xmlns="http://www.w3.org/2000/svg">
<path d="M58.5 115.05C89.7317 115.05 115.05 89.7317 115.05 58.5C115.05 27.2683 89.7317 1.95001 58.5 1.95001C27.2682 1.95001 1.94995 27.2683 1.94995 58.5C1.94995 89.7317 27.2682 115.05 58.5 115.05Z" fill="#5EDD60"/>
<path d="M47.3109 82.0365L34.0509 69.0846C33.7641 68.8058 33.5361 68.4724 33.3804 68.1039C33.2247 67.7355 33.1445 67.3396 33.1445 66.9396C33.1445 66.5396 33.2247 66.1437 33.3804 65.7753C33.5361 65.4069 33.7641 65.0734 34.0509 64.7946L38.4482 60.5046C39.0378 59.9333 39.8267 59.6138 40.6478 59.6138C41.4688 59.6138 42.2577 59.9333 42.8474 60.5046L50.741 68.2208L72.8793 34.5638C73.3361 33.8846 74.0391 33.4097 74.8397 33.2394C75.6402 33.0691 76.4756 33.2167 77.1693 33.6512L82.4031 36.9389C82.745 37.1491 83.0411 37.4258 83.274 37.7526C83.5069 38.0794 83.6718 38.4496 83.7589 38.8414C83.846 39.2331 83.8536 39.6383 83.7811 40.033C83.7087 40.4278 83.5577 40.8039 83.3372 41.1392L57.1233 81.005C56.598 81.7853 55.9081 82.441 55.102 82.9258C54.296 83.4107 53.3934 83.7129 52.4579 83.8112C51.5224 83.9096 50.5768 83.8016 49.6875 83.495C48.7982 83.1884 47.987 82.6905 47.3109 82.0365Z" fill="white"/>
</svg>
