<svg width="16" height="19" viewBox="0 0 16 19" fill="none" xmlns="http://www.w3.org/2000/svg">
<path d="M4.6828 10.9368L6.71326 18.5499L0 10.9368H4.6828Z" fill="#EC5873"/>
<path d="M4.72159 9.8492H0L3.10362 6.74558C3.20585 6.64371 3.34398 6.58643 3.48826 6.58643H6.58608L4.72159 9.8492Z" fill="#EC5873"/>
<path d="M9.7031 9.8492H5.97412L7.83861 6.58643L9.7031 9.8492Z" fill="#EC5873"/>
<path d="M9.86844 10.9368L7.83827 18.5499L5.80811 10.9368H9.86844Z" fill="#EC5873"/>
<path d="M10.9558 9.8492L9.09131 6.58643H12.1891C12.3334 6.58643 12.4715 6.64371 12.5738 6.74558L15.6774 9.8492H10.9558Z" fill="#EC5873"/>
<path d="M10.9943 10.9368H15.6771L8.96387 18.5499L10.9943 10.9368Z" fill="#EC5873"/>
<path d="M7.83872 3.10079C7.5384 3.10079 7.29492 2.85732 7.29492 2.557V0.543795C7.29492 0.243475 7.5384 0 7.83872 0C8.13904 0 8.38251 0.243475 8.38251 0.543795V2.557C8.38251 2.85732 8.13907 3.10079 7.83872 3.10079Z" fill="#EC5873"/>
<path d="M2.43308 4.22356L1.42648 2.48008C1.27629 2.22 1.3654 1.88742 1.62551 1.73726C1.88559 1.5871 2.21821 1.67617 2.36834 1.93629L3.37494 3.67977C3.52513 3.93985 3.43602 4.27243 3.17591 4.42259C2.91692 4.57213 2.5839 4.48484 2.43308 4.22356Z" fill="#EC5873"/>
<path d="M12.5015 4.42273C12.2414 4.27257 12.1523 3.93998 12.3025 3.6799L13.3091 1.93643C13.4593 1.67631 13.7918 1.5872 14.0519 1.7374C14.312 1.88756 14.4011 2.22014 14.2509 2.48022L13.2443 4.2237C13.0937 4.48458 12.7608 4.57245 12.5015 4.42273Z" fill="#EC5873"/>
</svg>
