<svg width="13" height="14" viewBox="0 0 13 14" fill="none" xmlns="http://www.w3.org/2000/svg">
<path d="M6.32832 0C5.30753 0 4.47705 0.830479 4.47705 1.85127C4.47705 1.94421 4.48412 2.03547 4.49741 2.12478H5.30181C5.27853 2.03748 5.26596 1.94582 5.26596 1.85127C5.26596 1.26546 5.74254 0.788878 6.32835 0.788878C6.91415 0.788878 7.39071 1.26546 7.39071 1.85127C7.39071 1.94582 7.3781 2.03745 7.35485 2.12478H8.15926C8.17254 2.0355 8.17961 1.94421 8.17961 1.85127C8.17954 0.830479 7.34908 0 6.32832 0Z" fill="#EC5873"/>
<path d="M12.6191 10.5179L11.6292 4.91499C11.4243 3.75528 10.4209 2.91357 9.24322 2.91357H3.41303C2.23542 2.91357 1.23196 3.75528 1.02706 4.91499L0.0371955 10.5179C-0.0877378 11.2252 0.105339 11.9463 0.566864 12.4965C1.02842 13.0468 1.70499 13.3624 2.4232 13.3624H10.2331C10.9513 13.3624 11.6279 13.0468 12.0894 12.4966C12.551 11.9463 12.744 11.2252 12.6191 10.5179ZM6.01038 9.71711C5.93378 9.7912 5.83487 9.82808 5.73611 9.8281C5.63297 9.8281 5.53001 9.78791 5.4526 9.70794L4.34723 8.56569V9.43365C4.34723 9.65149 4.17062 9.8281 3.95277 9.8281C3.73493 9.8281 3.55832 9.65149 3.55832 9.43365V6.84228C3.55832 6.62444 3.73493 6.44783 3.95277 6.44783C4.17062 6.44783 4.34723 6.62444 4.34723 6.84228V7.71024L5.4526 6.56799C5.6041 6.41145 5.85379 6.40735 6.01038 6.55883C6.16692 6.71033 6.17099 6.96001 6.01954 7.11658L5.03114 8.13797L6.01954 9.15935C6.17101 9.31589 6.16692 9.5656 6.01038 9.71711ZM7.83518 9.8281C7.13885 9.8281 6.57233 9.26158 6.57233 8.56525V7.71073C6.57233 7.0144 7.13885 6.44788 7.83518 6.44788C8.22687 6.44788 8.58982 6.62509 8.83107 6.93409C8.96514 7.1058 8.93461 7.35371 8.76285 7.48772C8.5911 7.62179 8.34324 7.59123 8.2092 7.41953C8.11853 7.30339 7.98219 7.23673 7.83516 7.23673C7.57381 7.23673 7.36118 7.44936 7.36118 7.71071V8.5652C7.36118 8.82655 7.57381 9.03917 7.83516 9.03917C8.0697 9.03917 8.26505 8.86789 8.30261 8.64381H8.11146C7.89362 8.64381 7.71701 8.4672 7.71701 8.24935C7.71701 8.03151 7.89362 7.8549 8.11146 7.8549H8.70356C8.9214 7.8549 9.09801 8.03151 9.09801 8.24935V8.5652H9.09803C9.09803 9.26158 8.53152 9.8281 7.83518 9.8281Z" fill="#EC5873"/>
</svg>
