<svg width="12" height="10" viewBox="0 0 12 10" fill="none" xmlns="http://www.w3.org/2000/svg">
<path d="M7.42679 2.22805C7.15348 2.22805 6.93167 2.00623 6.93167 1.73293V0.990244H4.95118V1.73293C4.95118 2.00623 4.72937 2.22805 4.45606 2.22805C4.18275 2.22805 3.96094 2.00623 3.96094 1.73293V0.990244C3.96094 0.444124 4.40506 0 4.95118 0H6.93167C7.47779 0 7.92191 0.444124 7.92191 0.990244V1.73293C7.92191 2.00623 7.7001 2.22805 7.42679 2.22805Z" fill="#EC5873"/>
<path d="M6.293 6.62472C6.20388 6.65938 6.07515 6.68413 5.94146 6.68413C5.80778 6.68413 5.67905 6.65938 5.56022 6.61482L0 4.76306V8.54084C0 9.29343 0.609 9.90243 1.36159 9.90243H10.5213C11.2739 9.90243 11.8829 9.29343 11.8829 8.54084V4.76306L6.293 6.62472Z" fill="#EC5873"/>
<path d="M11.8829 2.84694V3.98077L6.06029 5.92164C6.02068 5.9365 5.98107 5.94145 5.94146 5.94145C5.90185 5.94145 5.86224 5.9365 5.82263 5.92164L0 3.98077V2.84694C0 2.09435 0.609 1.48535 1.36159 1.48535H10.5213C11.2739 1.48535 11.8829 2.09435 11.8829 2.84694Z" fill="#EC5873"/>
</svg>
